<svg xmlns="http://www.w3.org/2000/svg" width="110" height="24"><path fill="#F89C49" d="M100.45 9.812h-3.155v-3.418h3.155v-6.249h4.522v6.249h4.847v3.418h-4.847v6.933c0 1.412.286 2.328.861 2.752.576.422 1.751.354 3.528.354h.457v3.691s-2.43.01-4.132.005-3.015-.466-3.903-1.399c-.89-.934-1.334-2.246-1.334-3.938v-8.398z"/><path fill="#F89C49" d="M94.354 8.041c-1.913-1.754-4.867-1.819-6.943-1.819h-.007c-2.076 0-5.028.064-6.943 1.819-2.012 1.817-2.207 5.129-2.207 7.044 0 1.756.162 5.002 2.207 6.886 1.915 1.721 4.867 1.851 6.943 1.851h.007c2.076 0 5.03-.13 6.943-1.851 2.044-1.884 2.206-5.13 2.206-6.886.001-1.915-.194-5.227-2.206-7.044zm-2.027 7.012c0 .915.03 2.517-1.039 3.783-1.138 1.267-2.481 1.416-3.877 1.416h-.007c-1.396 0-2.74-.149-3.876-1.416-1.07-1.267-1.04-2.868-1.04-3.783 0-.913-.057-2.777 1.015-4.01 1.072-1.234 2.669-1.223 3.901-1.223h.007c1.231 0 2.831-.012 3.901 1.223 1.071 1.232 1.015 3.097 1.015 4.01z"/><path fill="#F89C49" d="M71.208 11.08c-.262.391-.391 1.149-.391 2.278v10.222h-4.425v-10.613c0-2.387.597-4.091 1.79-5.11 1.105-.955 2.874-1.433 5.304-1.433 2.428 0 4.001.089 4.001.089v3.716s-2.396-.061-3.677-.061c-1.28-.001-2.19.303-2.602.912z"/><path fill="#F89C49" d="M59.079 11.08c-.261.391-.39 1.149-.39 2.278v10.222h-4.425v-10.613c0-2.387.596-4.091 1.79-5.11 1.105-.955 2.872-1.433 5.301-1.433l4.002.089v3.716s-2.395-.061-3.675-.061c-1.283-.001-2.191.303-2.603.912z"/><path fill="#F89C49" d="M27.49 19.915h4.75v3.679h-6.083c-2.971 0-5.221-.755-6.751-2.262-1.527-1.51-2.293-3.598-2.293-6.268 0-2.364.51-4.243 1.529-5.631 1.475-1.997 3.979-2.995 7.515-2.995h6.083v3.743h-4.75c-1.887 0-3.209.25-3.968.749-1.085.717-1.627 2.095-1.627 4.134 0 1.477.292 2.572.879 3.288.866 1.042 2.439 1.563 4.716 1.563z"/><path fill="#F89C49" d="M43.022 9.987h-7.579v-3.549h9.271c4.707 0 7.059 2.138 7.059 6.413v10.742h-12.133c-1.648 0-2.951-.457-3.904-1.367-.955-.911-1.432-2.148-1.432-3.71 0-2.085.672-3.538 2.016-4.363 1.064-.65 2.679-.978 4.848-.978h5.986c0-1.214-.293-2.051-.879-2.505-.586-.456-1.67-.683-3.253-.683zm-1.528 10.187h5.66v-3.579h-5.335c-.825 0-1.431.086-1.822.26-.606.261-.91.771-.91 1.53 0 .719.189 1.193.569 1.432.378.241.991.357 1.838.357z"/><polygon fill="#8BC53F" points="10.331,12.358 2.389,9.15 0.257,12.555 8.901,15.001 0.265,17.279 2.398,20.686 10.294,17.661 5.326,23.572 9.786,23.572 15.741,15.014 9.793,6.466 5.338,6.466"/></svg>
